<?xml version="1.0" encoding="UTF-8"?>
<svg width="32px" height="32px" viewBox="0 0 32 32" version="1.1" xmlns="http://www.w3.org/2000/svg" xmlns:xlink="http://www.w3.org/1999/xlink">
    <!-- Generator: Sketch 52.4 (67378) - http://www.bohemiancoding.com/sketch -->
    <title>icon_comment</title>
    <desc>Created with Sketch.</desc>
    <defs>
      <ref id="param" param="color" default="#ffffff"/>
    </defs>
    <g id="icon_comment" stroke="none" stroke-width="1" fill="param(color)" fill-rule="evenodd">
        <path d="M17.9547367,8.52683559 C16.7397423,8.05180015 15.4334144,7.814286 14.035714,7.814286 C12.6380136,7.814286 11.3316857,8.05180015 10.1166913,8.52683559 C8.90169677,9.00187103 7.93565363,9.64589979 7.21853282,10.4589412 C6.50141202,11.2719826 6.142857,12.1443904 6.142857,13.0761907 C6.142857,13.825285 6.38493873,14.5469626 6.86910947,15.2412452 C7.3532802,15.9355278 8.0338496,16.5384483 8.9108381,17.0500249 L10.2400171,17.817386 L9.14052131,19.6328125 C9.4511214,19.4501066 10.3542065,18.6075861 10.6099948,18.4340155 L11.2129214,18.0092263 L11.9391739,18.1462551 C12.651727,18.2741492 13.3505667,18.3380953 14.035714,18.3380953 C15.4334144,18.3380953 16.7397423,18.1005812 17.9547367,17.6255457 C19.1697312,17.1505103 20.1357744,16.5064815 20.8528952,15.6934401 C21.570016,14.8803987 21.928571,14.0079909 21.928571,13.0761907 C21.928571,12.1443904 21.570016,11.2719826 20.8528952,10.4589412 C20.1357744,9.64589979 19.1697312,9.00187103 17.9547367,8.52683559 Z M9.4921875,7.45703125 C10.8869117,6.86662651 12.4014055,6.57142857 14.0357143,6.57142857 C15.6700231,6.57142857 17.1823777,6.8644874 18.5728237,7.45061384 C19.9632696,8.03674028 21.0606359,8.83463037 21.8649554,9.84430804 C22.6692749,10.8539857 23.0714286,11.9534911 23.0714286,13.1428571 C23.0714286,14.3322232 22.6692749,15.4317286 21.8649554,16.4414062 C21.0606359,17.4510839 19.9632696,18.248974 18.5728237,18.8351004 C17.1823777,19.4212269 15.6700231,19.7142857 14.0357143,19.7142857 C13.2998475,19.7142857 12.5468789,19.645834 11.7767857,19.5089286 C10.7157685,20.2619085 9.52642028,20.8095221 8.20870536,21.1517857 C7.9006681,21.228795 7.53274023,21.2972467 7.10491071,21.3571429 L7.06640625,21.3571429 C6.97228376,21.3571429 6.88458002,21.322917 6.80329241,21.2544643 C6.7220048,21.1860116 6.67280515,21.0961687 6.65569196,20.984933 C6.64713537,20.9592633 6.64285714,20.9314548 6.64285714,20.9015067 C6.64285714,20.8715586 6.64499626,20.8437501 6.64927455,20.8180804 C6.65355285,20.7924106 6.66210931,20.7667412 6.6749442,20.7410714 L6.70703125,20.6768973 C6.71558784,20.6597841 6.73056165,20.6362539 6.75195312,20.6063058 C6.7733446,20.5763577 6.79045753,20.5549666 6.80329241,20.5421317 C6.8161273,20.5292968 6.83537934,20.5079057 6.86104911,20.4779576 C6.88671888,20.4480095 6.9038318,20.4287575 6.91238839,20.4202009 C6.95517134,20.3688614 7.05357066,20.2619056 7.20758929,20.0993304 C7.36160791,19.9367551 7.47284192,19.8105473 7.54129464,19.7207031 C7.60974737,19.6308589 7.70600756,19.5067902 7.83007812,19.3484933 C7.95414869,19.1901964 8.06110446,19.0254845 8.15094866,18.8543527 C8.24079286,18.6832209 8.3284966,18.4949787 8.4140625,18.2896205 C7.35304529,17.673546 6.51879024,16.9162991 5.91127232,16.0178571 C5.3037544,15.1194152 5,14.1610914 5,13.1428571 C5,11.9534911 5.40215372,10.8539857 6.20647321,9.84430804 C7.01079271,8.83463037 8.10601985,8.0388794 9.4921875,7.45703125 Z M24.3859378,21.2753348 C24.4715037,21.4806929 24.5592075,21.6689351 24.6490517,21.8400669 C24.7388959,22.0111987 24.8458517,22.1759106 24.9699222,22.3342075 C25.0939928,22.4925045 25.190253,22.6165732 25.2587057,22.7064174 C25.3271584,22.7962616 25.4383924,22.9224694 25.5924111,23.0850446 C25.7464297,23.2476198 25.844829,23.3545756 25.8876119,23.4059151 C25.8961685,23.4144717 25.9132815,23.4337237 25.9389512,23.4636718 C25.964621,23.4936199 25.983873,23.515011 25.9967079,23.5278459 C26.0095428,23.5406808 26.0266557,23.562072 26.0480472,23.59202 C26.0694387,23.6219681 26.0844125,23.6454984 26.0929691,23.6626115 L26.1250561,23.7267857 C26.137891,23.7524554 26.1464475,23.7781248 26.1507258,23.8037946 C26.1550041,23.8294644 26.1571432,23.8572729 26.1571432,23.8872209 C26.1571432,23.917169 26.152865,23.9449775 26.1443084,23.9706473 C26.1186386,24.0904395 26.0630216,24.1845606 25.9774557,24.2530133 C25.8918898,24.3214661 25.7977687,24.3514137 25.6950896,24.3428571 C25.2672601,24.282961 24.8993322,24.2145093 24.591295,24.1374999 C23.5683547,23.8718012 22.6227733,23.4823504 21.754534,22.9691399 C21.5043386,22.8212511 21.2605656,22.6630855 21.0232146,22.4946428 C20.2531215,22.6315482 19.5001528,22.6999999 18.7642861,22.6999999 C16.4454501,22.6999999 14.3636987,21.6032709 12.643824,20.473801 C13.1401062,20.5080273 13.4934645,20.4970984 13.7501622,20.4970984 C15.1277733,20.4970984 16.4164989,20.6421897 17.6828743,20.2571431 C18.9492497,19.8720965 20.0306501,19.5058506 21.0232146,18.787097 C22.0927884,17.9998907 22.8339785,17.1553622 23.4072701,16.1285714 C23.9805616,15.1017805 24.0852687,13.5509317 24.0329151,12.7754658 C23.9805616,12 23.3729833,10.70191 23.1761817,10.0601657 C24.2799819,10.6676836 26.1956445,12.2610073 26.8373887,13.1765624 C27.479133,14.0921176 27.8000003,15.0761108 27.8000003,16.1285714 C27.8000003,17.1553622 27.4962459,18.1158251 26.888728,19.0099888 C26.2812101,19.9041525 25.446955,20.6592603 24.3859378,21.2753348 Z" id="" fill="param(color)"></path>
        <path d="M9.30000001,12.1 L10.622266,12.1 C10.7879514,12.1 10.922266,12.2343146 10.922266,12.4 L10.922266,13.7599458 C10.922266,13.9256312 10.7879514,14.0599458 10.622266,14.0599458 L9.30000001,14.0599458 C9.13431458,14.0599458 9,13.9256312 9,13.7599458 L9,12.4 C9,12.2343146 9.13431458,12.1 9.30000001,12.1 Z" id="Path-21" fill="param(color)" fill-rule="nonzero"></path>
        <path d="M13.3,12.1 L14.622266,12.1 C14.7879514,12.1 14.922266,12.2343146 14.922266,12.4 L14.922266,13.7599458 C14.922266,13.9256312 14.7879514,14.0599458 14.622266,14.0599458 L13.3,14.0599458 C13.1343146,14.0599458 13,13.9256312 13,13.7599458 L13,12.4 C13,12.2343146 13.1343146,12.1 13.3,12.1 Z" id="Path-21" fill="param(color)" fill-rule="nonzero"></path>
        <path d="M17.3,12.1 L18.622266,12.1 C18.7879514,12.1 18.922266,12.2343146 18.922266,12.4 L18.922266,13.7599458 C18.922266,13.9256312 18.7879514,14.0599458 18.622266,14.0599458 L17.3,14.0599458 C17.1343146,14.0599458 17,13.9256312 17,13.7599458 L17,12.4 C17,12.2343146 17.1343146,12.1 17.3,12.1 Z" id="Path-21" fill="param(color)" fill-rule="nonzero"></path>
    </g>
</svg>
